<svg width="63" height="63" viewBox="0 0 63 63" fill="none" xmlns="http://www.w3.org/2000/svg">
<circle cx="31.4117" cy="31.6558" r="30.8199" fill="url(#paint0_linear_992_4922)"/>
<mask id="mask0_992_4922" style="mask-type:alpha" maskUnits="userSpaceOnUse" x="0" y="0" width="63" height="63">
<circle cx="31.4119" cy="31.6558" r="30.8199" fill="#D9D9D9"/>
</mask>
<g mask="url(#mask0_992_4922)">
<rect x="26.1006" y="0.4104" width="10.6276" height="10.6276" fill="#5F6DDD"/>
<rect x="26.1003" y="52.6978" width="10.6276" height="11.0527" fill="#5F6DDD"/>
<rect x="-0.258667" y="37.394" width="10.6276" height="10.6276" transform="rotate(-90 -0.258667 37.394)" fill="#5F6DDD"/>
<rect x="52.028" y="37.394" width="10.6276" height="11.0527" transform="rotate(-90 52.028 37.394)" fill="#5F6DDD"/>
<rect x="5.20325" y="13.657" width="10.6276" height="10.6276" transform="rotate(-45 5.20325 13.657)" fill="#5F6DDD"/>
<rect x="42.1775" y="50.6299" width="10.6276" height="11.0527" transform="rotate(-45 42.1775 50.6299)" fill="#5F6DDD"/>
<rect x="12.7217" y="58.4443" width="10.6276" height="10.6276" transform="rotate(-135 12.7217 58.4443)" fill="#5F6DDD"/>
<rect x="49.6941" y="21.4724" width="10.6276" height="11.0527" transform="rotate(-135 49.6941 21.4724)" fill="#5F6DDD"/>
</g>
<circle cx="31.6419" cy="31.6554" r="17.6417" fill="#6674ED"/>
<path d="M23.3588 31.3372C23.3588 29.6477 23.642 28.3293 24.2084 27.382C24.7846 26.425 25.771 25.9464 27.1675 25.9464C28.564 25.9464 29.5455 26.425 30.1119 27.382C30.6881 28.3293 30.9762 29.6477 30.9762 31.3372C30.9762 33.0463 30.6881 34.3842 30.1119 35.351C29.5455 36.3081 28.564 36.7866 27.1675 36.7866C25.771 36.7866 24.7846 36.3081 24.2084 35.351C23.642 34.3842 23.3588 33.0463 23.3588 31.3372ZM29.3355 31.3372C29.3355 30.5462 29.2818 29.8772 29.1744 29.3303C29.0767 28.7834 28.8717 28.3391 28.5591 27.9973C28.2466 27.6457 27.7828 27.4699 27.1675 27.4699C26.5522 27.4699 26.0884 27.6457 25.7759 27.9973C25.4633 28.3391 25.2534 28.7834 25.146 29.3303C25.0483 29.8772 24.9995 30.5462 24.9995 31.3372C24.9995 32.1576 25.0483 32.8461 25.146 33.4027C25.2436 33.9594 25.4487 34.4086 25.7612 34.7504C26.0835 35.0922 26.5522 35.2631 27.1675 35.2631C27.7828 35.2631 28.2466 35.0922 28.5591 34.7504C28.8814 34.4086 29.0914 33.9594 29.189 33.4027C29.2867 32.8461 29.3355 32.1576 29.3355 31.3372ZM33.6368 36.9185C33.3341 36.9185 33.0802 36.8159 32.8751 36.6108C32.67 36.4057 32.5675 36.1518 32.5675 35.8491C32.5675 35.5463 32.67 35.2924 32.8751 35.0873C33.0802 34.8823 33.3341 34.7797 33.6368 34.7797C33.9298 34.7797 34.1788 34.8823 34.3839 35.0873C34.589 35.2924 34.6915 35.5463 34.6915 35.8491C34.6915 36.1518 34.589 36.4057 34.3839 36.6108C34.1788 36.8159 33.9298 36.9185 33.6368 36.9185ZM36.057 27.6604V26.1369H39.104V36.8159H37.4193V27.6604H36.057Z" fill="white"/>
<defs>
<linearGradient id="paint0_linear_992_4922" x1="31.4117" y1="0.835937" x2="31.4117" y2="62.4757" gradientUnits="userSpaceOnUse">
<stop stop-color="#5967E5"/>
<stop offset="1" stop-color="#3A49C8"/>
</linearGradient>
</defs>
</svg>
