<svg width="62" height="63" viewBox="0 0 62 63" fill="none" xmlns="http://www.w3.org/2000/svg">
<circle cx="31.0015" cy="31.6558" r="30.8199" fill="url(#paint0_linear_992_4834)"/>
<mask id="mask0_992_4834" style="mask-type:alpha" maskUnits="userSpaceOnUse" x="0" y="0" width="62" height="63">
<circle cx="31.002" cy="31.6558" r="30.8199" fill="#D9D9D9"/>
</mask>
<g mask="url(#mask0_992_4834)">
<rect x="25.6918" y="0.4104" width="10.6276" height="10.6276" fill="#2BA36C"/>
<rect x="25.6918" y="52.6978" width="10.6276" height="11.0527" fill="#2BA36C"/>
<rect x="-0.664551" y="37.3945" width="10.6276" height="10.6276" transform="rotate(-90 -0.664551 37.3945)" fill="#2BA36C"/>
<rect x="51.6223" y="37.3948" width="10.6276" height="11.0527" transform="rotate(-90 51.6223 37.3948)" fill="#2BA36C"/>
<rect x="4.79053" y="13.6558" width="10.6276" height="10.6276" transform="rotate(-45 4.79053 13.6558)" fill="#2BA36C"/>
<rect x="41.765" y="50.6277" width="10.6276" height="11.0527" transform="rotate(-45 41.765 50.6277)" fill="#2BA36C"/>
<rect x="12.3063" y="58.4429" width="10.6276" height="10.6276" transform="rotate(-135 12.3063 58.4429)" fill="#2BA36C"/>
<rect x="49.2787" y="21.4709" width="10.6276" height="11.0527" transform="rotate(-135 49.2787 21.4709)" fill="#2BA36C"/>
</g>
<circle cx="30.6421" cy="31.6554" r="17.6417" fill="#38BB7F"/>
<path d="M21.1928 31.3372C21.1928 29.6477 21.476 28.3293 22.0424 27.382C22.6186 26.425 23.605 25.9464 25.0015 25.9464C26.398 25.9464 27.3795 26.425 27.9459 27.382C28.5221 28.3293 28.8102 29.6477 28.8102 31.3372C28.8102 33.0463 28.5221 34.3842 27.9459 35.351C27.3795 36.3081 26.398 36.7866 25.0015 36.7866C23.605 36.7866 22.6186 36.3081 22.0424 35.351C21.476 34.3842 21.1928 33.0463 21.1928 31.3372ZM27.1695 31.3372C27.1695 30.5462 27.1158 29.8772 27.0084 29.3303C26.9108 28.7834 26.7057 28.3391 26.3932 27.9973C26.0806 27.6457 25.6168 27.4699 25.0015 27.4699C24.3863 27.4699 23.9224 27.6457 23.6099 27.9973C23.2974 28.3391 23.0874 28.7834 22.98 29.3303C22.8823 29.8772 22.8335 30.5462 22.8335 31.3372C22.8335 32.1576 22.8823 32.8461 22.98 33.4027C23.0776 33.9594 23.2827 34.4086 23.5952 34.7504C23.9175 35.0922 24.3863 35.2631 25.0015 35.2631C25.6168 35.2631 26.0806 35.0922 26.3932 34.7504C26.7154 34.4086 26.9254 33.9594 27.0231 33.4027C27.1207 32.8461 27.1695 32.1576 27.1695 31.3372ZM31.4708 36.9185C31.1681 36.9185 30.9142 36.8159 30.7091 36.6108C30.504 36.4057 30.4015 36.1518 30.4015 35.8491C30.4015 35.5463 30.504 35.2924 30.7091 35.0873C30.9142 34.8823 31.1681 34.7797 31.4708 34.7797C31.7638 34.7797 32.0128 34.8823 32.2179 35.0873C32.423 35.2924 32.5256 35.5463 32.5256 35.8491C32.5256 36.1518 32.423 36.4057 32.2179 36.6108C32.0128 36.8159 31.7638 36.9185 31.4708 36.9185ZM35.0336 34.5453C35.9711 33.7348 36.7085 33.0707 37.2456 32.5531C37.7925 32.0257 38.2466 31.4788 38.6079 30.9124C38.9693 30.346 39.1499 29.7796 39.1499 29.2131C39.1499 28.6272 39.0083 28.1682 38.7251 27.8361C38.4517 27.5041 38.0171 27.3381 37.4214 27.3381C36.8452 27.3381 36.396 27.5236 36.0737 27.8947C35.7612 28.2561 35.5951 28.7444 35.5756 29.3596H33.9642C33.9935 28.2463 34.3256 27.3967 34.9604 26.8107C35.6049 26.215 36.4204 25.9171 37.4067 25.9171C38.4712 25.9171 39.3013 26.2101 39.897 26.7961C40.5025 27.382 40.8053 28.1633 40.8053 29.1399C40.8053 29.843 40.6246 30.5218 40.2633 31.1761C39.9117 31.8206 39.4869 32.4017 38.9888 32.9193C38.5005 33.4271 37.8755 34.018 37.1137 34.6918L36.4545 35.2778H41.0983V36.6694H33.9789V35.4536L35.0336 34.5453Z" fill="white"/>
<defs>
<linearGradient id="paint0_linear_992_4834" x1="31.0015" y1="0.835937" x2="31.0015" y2="62.4757" gradientUnits="userSpaceOnUse">
<stop stop-color="#049050"/>
<stop offset="1" stop-color="#089755"/>
</linearGradient>
</defs>
</svg>
