<svg width="62" height="63" viewBox="0 0 62 63" fill="none" xmlns="http://www.w3.org/2000/svg">
<circle cx="30.8199" cy="31.6558" r="30.8199" fill="url(#paint0_linear_992_4900)"/>
<mask id="mask0_992_4900" style="mask-type:alpha" maskUnits="userSpaceOnUse" x="0" y="0" width="62" height="63">
<circle cx="30.8199" cy="31.6558" r="30.8199" fill="#D9D9D9"/>
</mask>
<g mask="url(#mask0_992_4900)">
<rect x="25.5054" y="0.410156" width="10.6276" height="10.6276" fill="#EA6262"/>
<rect x="25.5054" y="52.6978" width="10.6276" height="11.0527" fill="#EA6262"/>
<rect x="-0.852783" y="37.3948" width="10.6276" height="10.6276" transform="rotate(-90 -0.852783 37.3948)" fill="#EA6262"/>
<rect x="51.4338" y="37.3948" width="10.6276" height="11.0527" transform="rotate(-90 51.4338 37.3948)" fill="#EA6262"/>
<rect x="4.60437" y="13.6565" width="10.6276" height="10.6276" transform="rotate(-45 4.60437 13.6565)" fill="#EA6262"/>
<rect x="41.5787" y="50.6284" width="10.6276" height="11.0527" transform="rotate(-45 41.5787 50.6284)" fill="#EA6262"/>
<rect x="12.1229" y="58.4451" width="10.6276" height="10.6276" transform="rotate(-135 12.1229 58.4451)" fill="#EA6262"/>
<rect x="49.0955" y="21.4722" width="10.6276" height="11.0527" transform="rotate(-135 49.0955 21.4722)" fill="#EA6262"/>
</g>
<circle cx="30.6416" cy="31.6554" r="17.6417" fill="#EE5E5E"/>
<path d="M21.1361 36.9185C20.8334 36.9185 20.5795 36.8159 20.3744 36.6108C20.1693 36.4057 20.0668 36.1518 20.0668 35.8491C20.0668 35.5463 20.1693 35.2924 20.3744 35.0873C20.5795 34.8823 20.8334 34.7797 21.1361 34.7797C21.4291 34.7797 21.6781 34.8823 21.8832 35.0873C22.0883 35.2924 22.1908 35.5463 22.1908 35.8491C22.1908 36.1518 22.0883 36.4057 21.8832 36.6108C21.6781 36.8159 21.4291 36.9185 21.1361 36.9185ZM23.776 31.3372C23.776 29.6477 24.0592 28.3293 24.6257 27.382C25.2018 26.425 26.1882 25.9464 27.5847 25.9464C28.9813 25.9464 29.9627 26.425 30.5292 27.382C31.1053 28.3293 31.3934 29.6477 31.3934 31.3372C31.3934 33.0463 31.1053 34.3842 30.5292 35.351C29.9627 36.3081 28.9813 36.7866 27.5847 36.7866C26.1882 36.7866 25.2018 36.3081 24.6257 35.351C24.0592 34.3842 23.776 33.0463 23.776 31.3372ZM29.7528 31.3372C29.7528 30.5462 29.6991 29.8772 29.5916 29.3303C29.494 28.7834 29.2889 28.3391 28.9764 27.9973C28.6639 27.6457 28.2 27.4699 27.5847 27.4699C26.9695 27.4699 26.5056 27.6457 26.1931 27.9973C25.8806 28.3391 25.6706 28.7834 25.5632 29.3303C25.4655 29.8772 25.4167 30.5462 25.4167 31.3372C25.4167 32.1576 25.4655 32.8461 25.5632 33.4027C25.6608 33.9594 25.8659 34.4086 26.1784 34.7504C26.5007 35.0922 26.9695 35.2631 27.5847 35.2631C28.2 35.2631 28.6639 35.0922 28.9764 34.7504C29.2986 34.4086 29.5086 33.9594 29.6063 33.4027C29.7039 32.8461 29.7528 32.1576 29.7528 31.3372ZM40.0454 27.5725H35.1381V30.4876C35.3432 30.2141 35.6459 29.9846 36.0463 29.7991C36.4565 29.6135 36.8911 29.5208 37.3501 29.5208C38.1704 29.5208 38.8345 29.6966 39.3423 30.0481C39.8599 30.3997 40.2261 30.844 40.441 31.3812C40.6656 31.9183 40.7779 32.4847 40.7779 33.0804C40.7779 33.8031 40.6363 34.4477 40.3531 35.0141C40.0796 35.5708 39.6646 36.0102 39.1079 36.3325C38.561 36.6548 37.8872 36.8159 37.0864 36.8159C36.0219 36.8159 35.1674 36.5522 34.5228 36.0249C33.8783 35.4975 33.4925 34.7993 33.3656 33.9301H34.9916C35.099 34.3891 35.3383 34.7553 35.7094 35.0288C36.0805 35.2924 36.5444 35.4243 37.101 35.4243C37.7944 35.4243 38.312 35.2143 38.6538 34.7944C39.0054 34.3744 39.1812 33.8178 39.1812 33.1244C39.1812 32.4212 39.0054 31.8841 38.6538 31.513C38.3022 31.1321 37.7846 30.9417 37.101 30.9417C36.6225 30.9417 36.2172 31.0638 35.8852 31.3079C35.5629 31.5423 35.3285 31.8646 35.182 32.2748H33.5999V26.1076H40.0454V27.5725Z" fill="white"/>
<defs>
<linearGradient id="paint0_linear_992_4900" x1="30.8199" y1="0.835937" x2="30.8199" y2="62.4757" gradientUnits="userSpaceOnUse">
<stop stop-color="#E74747"/>
<stop offset="1" stop-color="#F02C2C"/>
</linearGradient>
</defs>
</svg>
