<svg width="25" height="24" viewBox="0 0 25 24" fill="none" xmlns="http://www.w3.org/2000/svg">
<circle cx="12.3258" cy="11.9091" r="11.1545" fill="#F0B90B" stroke="#F7DA7C" stroke-width="1.48726"/>
<path d="M8.67528 7.09493L12.328 4.96875L15.9807 7.09493L14.6377 7.8804L12.328 6.53969L10.0182 7.8804L8.67528 7.09493ZM15.9807 9.77636L14.6377 8.99089L12.328 10.3316L10.0182 8.99089L8.67528 9.77636V11.3473L10.9851 12.688V15.3694L12.328 16.1549L13.6709 15.3694V12.688L15.9807 11.3473V9.77636ZM15.9807 14.0287V12.4578L14.6377 13.2432V14.8142L15.9807 14.0287ZM16.9341 14.584L14.6243 15.9247V17.4956L18.277 15.3694V11.1171L16.9341 11.9025V14.584ZM15.5912 8.43565L16.9341 9.22111V10.7921L18.277 10.0066V8.43565L16.9341 7.65018L15.5912 8.43565ZM10.9851 16.4935V18.0644L12.328 18.8499L13.6709 18.0644V16.4935L12.328 17.2789L10.9851 16.4935ZM8.67528 14.0287L10.0182 14.8142V13.2432L8.67528 12.4578V14.0287ZM10.9851 8.43565L12.328 9.22111L13.6709 8.43565L12.328 7.65018L10.9851 8.43565ZM7.7218 9.22111L9.06471 8.43565L7.7218 7.65018L6.37891 8.43565V10.0066L7.7218 10.7921V9.22111ZM7.7218 11.9025L6.37891 11.1171V15.3694L10.0316 17.4956V15.9247L7.7218 14.584V11.9025Z" fill="white"/>
</svg>
