<svg width="25" height="25" viewBox="0 0 25 25" fill="none" xmlns="http://www.w3.org/2000/svg">
<path d="M24.224 12.404C24.224 18.9751 18.897 24.3021 12.3258 24.3021C5.7547 24.3021 0.427734 18.9751 0.427734 12.404C0.427734 5.83283 5.7547 0.505859 12.3258 0.505859C18.897 0.505859 24.224 5.83283 24.224 12.404Z" fill="#6E7CCA"/>
<path fill-rule="evenodd" clip-rule="evenodd" d="M12.3258 22.8148C18.0756 22.8148 22.7367 18.1537 22.7367 12.404C22.7367 6.65422 18.0756 1.99312 12.3258 1.99312C6.57609 1.99312 1.915 6.65422 1.915 12.404C1.915 18.1537 6.57609 22.8148 12.3258 22.8148ZM12.3258 24.3021C18.897 24.3021 24.224 18.9751 24.224 12.404C24.224 5.83283 18.897 0.505859 12.3258 0.505859C5.7547 0.505859 0.427734 5.83283 0.427734 12.404C0.427734 18.9751 5.7547 24.3021 12.3258 24.3021Z" fill="#919BD7"/>
<path d="M12.0303 14.9577L12.1233 15.0506L16.3839 12.5322L12.1233 5.46289L12.0303 5.7792V14.9577Z" fill="#FFFDFE"/>
<path d="M12.1238 15.0507V5.46289L7.86328 12.5322L12.1238 15.0507Z" fill="#B0E7FF"/>
<path d="M12.0718 19.191L12.1242 19.3441L16.3874 13.3403L12.1242 15.8575L12.0718 15.9214V19.191Z" fill="#FFFDFF"/>
<path d="M7.86328 13.3403L12.1238 19.3442V15.8575L7.86328 13.3403Z" fill="#B0E7FF"/>
<path d="M12.1245 10.5962V15.0512L16.385 12.5328L12.1245 10.5962Z" fill="#FFFDFF"/>
<path d="M12.1238 10.5962L7.86328 12.5328L12.1238 15.0511V10.5962Z" fill="#C8F7F7"/>
</svg>
