<svg width="30" height="30" viewBox="0 0 30 30" fill="none" xmlns="http://www.w3.org/2000/svg">
<path d="M14.769 27.077C11.8972 26.359 9.53822 24.6924 7.69207 22.077C5.84593 19.4616 4.92285 16.595 4.92285 13.477V6.15397L14.769 2.46167L24.6151 6.15397V13.477C24.6151 16.595 23.692 19.4616 21.8459 22.077C19.9997 24.6924 17.6408 26.359 14.769 27.077ZM14.769 25.1693C16.9433 24.4514 18.7433 23.1334 20.169 21.2155C21.5946 19.2975 22.4305 17.1488 22.6766 14.7693H14.769V4.46166L6.769 7.44627V13.477C6.769 13.7232 6.77413 13.9334 6.78438 14.1078C6.79464 14.2821 6.82028 14.5027 6.86131 14.7693H14.769V25.1693Z" fill="#535353"/>
</svg>
