<svg width="25" height="25" viewBox="0 0 25 25" fill="none" xmlns="http://www.w3.org/2000/svg">
<path d="M24.224 12.4147C24.224 18.9859 18.897 24.3128 12.3258 24.3128C5.7547 24.3128 0.427734 18.9859 0.427734 12.4147C0.427734 5.84357 5.7547 0.516602 12.3258 0.516602C18.897 0.516602 24.224 5.84357 24.224 12.4147Z" fill="url(#paint0_linear_992_4216)"/>
<path fill-rule="evenodd" clip-rule="evenodd" d="M19.6873 5.05316C15.6216 0.987472 9.02979 0.987472 4.9641 5.05316C0.898413 9.11885 0.898413 15.7106 4.9641 19.7763C9.02979 23.842 15.6216 23.842 19.6873 19.7763C23.753 15.7106 23.753 9.11885 19.6873 5.05316ZM20.7389 4.00151C16.0924 -0.644996 8.55895 -0.644996 3.91245 4.00151C-0.734055 8.64801 -0.734054 16.1815 3.91245 20.828C8.55895 25.4745 16.0924 25.4745 20.7389 20.828C25.3854 16.1815 25.3854 8.64801 20.7389 4.00151Z" fill="url(#paint1_linear_992_4216)"/>
<g style="mix-blend-mode:screen">
<path d="M8.35626 15.3955C8.39345 15.3546 8.43879 15.3219 8.48938 15.2994C8.53996 15.277 8.59467 15.2654 8.64999 15.2654L17.7037 15.2728C17.7327 15.2728 17.7613 15.279 17.7876 15.2911C17.8139 15.3033 17.8372 15.321 17.8559 15.3431C17.8746 15.3653 17.8882 15.3912 17.8959 15.4191C17.9035 15.4471 17.9049 15.4763 17.9 15.5049C17.8938 15.543 17.8766 15.5785 17.8506 15.6071L15.9227 17.7376C15.8855 17.7787 15.8401 17.8115 15.7894 17.8339C15.7388 17.8564 15.684 17.868 15.6286 17.8681L6.57489 17.8607C6.53632 17.8606 6.49862 17.8492 6.4664 17.828C6.43418 17.8068 6.40882 17.7767 6.39344 17.7413C6.37793 17.706 6.37298 17.6668 6.37918 17.6287C6.38538 17.5906 6.40247 17.5551 6.42839 17.5264L8.35626 15.3959V15.3955ZM17.8498 13.622C17.8759 13.6506 17.893 13.6861 17.8993 13.7243C17.9055 13.7624 17.9006 13.8016 17.885 13.837C17.8695 13.8724 17.844 13.9025 17.8117 13.9238C17.7794 13.945 17.7416 13.9564 17.703 13.9566L8.64962 13.9641C8.59429 13.9641 8.53957 13.9525 8.48898 13.9301C8.43839 13.9077 8.39305 13.8749 8.35588 13.8339L6.42802 11.7019C6.40873 11.6805 6.3943 11.6551 6.38569 11.6276C6.37708 11.6001 6.37451 11.571 6.37814 11.5424C6.38178 11.5138 6.39153 11.4863 6.40675 11.4618C6.42196 11.4373 6.44228 11.4163 6.46632 11.4004C6.49857 11.3791 6.53627 11.3677 6.57489 11.3673L15.6286 11.3599C15.684 11.3598 15.7388 11.3715 15.7894 11.394C15.84 11.4166 15.8853 11.4495 15.9223 11.4907L17.8498 13.6224V13.622ZM8.35626 7.58741C8.39342 7.54642 8.43876 7.51366 8.48935 7.49125C8.53994 7.46883 8.59466 7.45726 8.64999 7.45728L17.7037 7.46471C17.7326 7.46462 17.7612 7.47086 17.7874 7.48298C17.8137 7.49511 17.837 7.51283 17.8556 7.5349C17.8743 7.55697 17.8879 7.58286 17.8955 7.61075C17.9031 7.63864 17.9045 7.66786 17.8997 7.69635C17.8935 7.73446 17.8765 7.76998 17.8506 7.7986L15.9227 9.92911C15.8854 9.97008 15.84 10.0028 15.7894 10.0252C15.7388 10.0476 15.684 10.0592 15.6286 10.0592L6.57489 10.0518C6.54601 10.0518 6.51747 10.0456 6.49127 10.0334C6.46508 10.0213 6.44185 10.0035 6.42322 9.98148C6.40459 9.95941 6.39101 9.93354 6.38342 9.90568C6.37584 9.87781 6.37443 9.84863 6.37931 9.82017C6.3855 9.78207 6.40254 9.74657 6.42839 9.71792L8.35626 7.58741Z" fill="white"/>
</g>
<defs>
<linearGradient id="paint0_linear_992_4216" x1="1.14979" y1="24.8312" x2="25.8457" y2="2.6056" gradientUnits="userSpaceOnUse">
<stop stop-color="#9945FF"/>
<stop offset="0.2" stop-color="#7962E7"/>
<stop offset="1" stop-color="#00D18C"/>
</linearGradient>
<linearGradient id="paint1_linear_992_4216" x1="29.0082" y1="11.5376" x2="-4.17041" y2="9.79083" gradientUnits="userSpaceOnUse">
<stop stop-color="#9945FF"/>
<stop offset="0.2" stop-color="#7962E7"/>
<stop offset="1" stop-color="#00D18C"/>
</linearGradient>
</defs>
</svg>
