<svg width="27" height="24" viewBox="0 0 27 24" fill="none" xmlns="http://www.w3.org/2000/svg">
<path fill-rule="evenodd" clip-rule="evenodd" d="M13.34 6.79064C15.0112 6.79064 16.366 5.43583 16.366 3.76458C16.366 2.09334 15.0112 0.738525 13.34 0.738525C11.6687 0.738525 10.3139 2.09334 10.3139 3.76458C10.3139 5.43583 11.6687 6.79064 13.34 6.79064ZM13.34 23.1967C15.0112 23.1967 16.366 21.8419 16.366 20.1706C16.366 18.4994 15.0112 17.1446 13.34 17.1446C11.6687 17.1446 10.3139 18.4994 10.3139 20.1706C10.3139 21.8419 11.6687 23.1967 13.34 23.1967ZM6.05211 20.1706C6.05211 21.8419 4.6973 23.1967 3.02606 23.1967C1.35481 23.1967 0 21.8419 0 20.1706C0 18.4994 1.35481 17.1446 3.02606 17.1446C4.6973 17.1446 6.05211 18.4994 6.05211 20.1706ZM23.544 23.1967C25.2152 23.1967 26.57 21.8419 26.57 20.1706C26.57 18.4994 25.2152 17.1446 23.544 17.1446C21.8727 17.1446 20.5179 18.4994 20.5179 20.1706C20.5179 21.8419 21.8727 23.1967 23.544 23.1967ZM11.1006 11.533C11.1006 13.2042 9.74576 14.559 8.07451 14.559C6.40326 14.559 5.04845 13.2042 5.04845 11.533C5.04845 9.86174 6.40326 8.50693 8.07451 8.50693C9.74576 8.50693 11.1006 9.86174 11.1006 11.533ZM18.3936 14.559C20.0649 14.559 21.4197 13.2042 21.4197 11.533C21.4197 9.86174 20.0649 8.50693 18.3936 8.50693C16.7224 8.50693 15.3676 9.86174 15.3676 11.533C15.3676 13.2042 16.7224 14.559 18.3936 14.559Z" fill="white"/>
</svg>
