<svg width="25" height="25" viewBox="0 0 25 25" fill="none" xmlns="http://www.w3.org/2000/svg">
<path fill-rule="evenodd" clip-rule="evenodd" d="M1.47116 11.0636C1.47116 17.6928 6.84521 23.0669 13.4744 23.0669H24.5195V24.5381H12.9266C5.78744 24.5381 5.29226e-06 18.7506 0 11.6115V0.601074H1.47116L1.47116 11.0636ZM14.8615 6.34549L17.5281 1.23248L20.2921 6.33249C20.6255 6.94771 20.1801 7.69578 19.4803 7.69578H18.3294V10.4144C18.3294 14.7301 14.8307 18.2288 10.5149 18.2288H6.9755V16.7576H10.5149C14.0182 16.7576 16.8582 13.9176 16.8582 10.4144V7.69578H15.6802C14.9869 7.69578 14.5409 6.9602 14.8615 6.34549Z" fill="white"/>
</svg>
