<svg width="21" height="22" viewBox="0 0 21 22" fill="none" xmlns="http://www.w3.org/2000/svg">
<path d="M19.881 22L16.4461 18.4015C15.9603 18.765 15.4356 19.0785 14.8717 19.342C14.3079 19.6055 13.7224 19.81 13.1152 19.9554V18.2652C13.5143 18.138 13.9002 17.9971 14.2732 17.8426C14.6462 17.6881 14.9975 17.4837 15.3271 17.2292L11.0335 12.7038V19.1648L5.829 13.7125H1.66543V7.16976H5.72491L0 1.17224L1.11896 0L21 20.8005L19.881 22ZM18.9442 15.6753L17.8253 14.5031C18.1722 13.8852 18.4281 13.2309 18.5929 12.5403C18.7577 11.8496 18.8402 11.1409 18.8402 10.4139C18.8402 8.54192 18.3197 6.86534 17.2788 5.38414C16.2379 3.90293 14.8501 2.96241 13.1152 2.56258V0.872367C15.2664 1.38125 17.0186 2.52169 18.3717 4.29368C19.7249 6.06568 20.4015 8.10574 20.4015 10.4139C20.4015 11.3408 20.2801 12.2495 20.0372 13.14C19.7943 14.0306 19.43 14.8757 18.9442 15.6753ZM15.4573 12.0223L13.1152 9.56877V6.02478C13.9306 6.42462 14.5682 7.02437 15.0279 7.82404C15.4876 8.62371 15.7175 9.49607 15.7175 10.4411C15.7175 10.7138 15.6958 10.9818 15.6524 11.2454C15.609 11.5089 15.544 11.7679 15.4573 12.0223ZM11.0335 7.38786L8.32714 4.55266L11.0335 1.71747V7.38786ZM9.47212 15.1846V11.0954L7.28625 8.80545H3.22677V12.0768H6.50558L9.47212 15.1846Z" fill="#535353"/>
</svg>
