<svg width="62" height="63" viewBox="0 0 62 63" fill="none" xmlns="http://www.w3.org/2000/svg">
<circle cx="31.1801" cy="31.6563" r="30.8199" fill="url(#paint0_linear_992_4878)"/>
<mask id="mask0_992_4878" style="mask-type:alpha" maskUnits="userSpaceOnUse" x="0" y="0" width="62" height="63">
<circle cx="31.1801" cy="31.6563" r="30.8199" fill="#D9D9D9"/>
</mask>
<g mask="url(#mask0_992_4878)">
<rect x="25.8715" y="0.410889" width="10.6276" height="10.6276" fill="#ECC162"/>
<rect x="25.8715" y="52.6985" width="10.6276" height="11.0527" fill="#ECC162"/>
<rect x="-0.488647" y="37.3955" width="10.6276" height="10.6276" transform="rotate(-90 -0.488647 37.3955)" fill="#ECC162"/>
<rect x="51.798" y="37.3955" width="10.6276" height="11.0527" transform="rotate(-90 51.798 37.3955)" fill="#ECC162"/>
<rect x="4.96814" y="13.6575" width="10.6276" height="10.6276" transform="rotate(-45 4.96814 13.6575)" fill="#ECC162"/>
<rect x="41.9425" y="50.6294" width="10.6276" height="11.0527" transform="rotate(-45 41.9425 50.6294)" fill="#ECC162"/>
<rect x="12.4867" y="58.4446" width="10.6276" height="10.6276" transform="rotate(-135 12.4867 58.4446)" fill="#ECC162"/>
<rect x="49.4591" y="21.4727" width="10.6276" height="11.0527" transform="rotate(-135 49.4591 21.4727)" fill="#ECC162"/>
</g>
<circle cx="31.1807" cy="31.6559" r="17.6417" fill="#FFECB4"/>
<path d="M24.0946 26.527L21.4857 31.552V34.4104H20.1926V31.552L17.5723 26.527H19.0129L20.8391 30.395L22.6653 26.527H24.0946ZM27.8317 34.5125C27.2419 34.5125 26.7088 34.3802 26.2324 34.1155C25.756 33.8432 25.3816 33.4651 25.1094 32.9812C24.8372 32.4896 24.7011 31.9225 24.7011 31.2797C24.7011 30.6445 24.841 30.0811 25.1208 29.5896C25.4006 29.0981 25.7824 28.72 26.2664 28.4553C26.7504 28.1906 27.2911 28.0583 27.8885 28.0583C28.4859 28.0583 29.0265 28.1906 29.5105 28.4553C29.9945 28.72 30.3764 29.0981 30.6561 29.5896C30.9359 30.0811 31.0758 30.6445 31.0758 31.2797C31.0758 31.9149 30.9322 32.4783 30.6448 32.9698C30.3574 33.4614 29.9642 33.8432 29.4651 34.1155C28.9736 34.3802 28.4291 34.5125 27.8317 34.5125ZM27.8317 33.3895C28.1645 33.3895 28.4745 33.3101 28.7619 33.1513C29.0568 32.9925 29.295 32.7543 29.4765 32.4367C29.658 32.1191 29.7487 31.7334 29.7487 31.2797C29.7487 30.826 29.6617 30.4441 29.4878 30.1341C29.3139 29.8165 29.0832 29.5783 28.7959 29.4195C28.5085 29.2607 28.1985 29.1813 27.8658 29.1813C27.533 29.1813 27.223 29.2607 26.9356 29.4195C26.6558 29.5783 26.4328 29.8165 26.2664 30.1341C26.1 30.4441 26.0169 30.826 26.0169 31.2797C26.0169 31.9527 26.187 32.4745 26.5273 32.8451C26.8751 33.208 27.31 33.3895 27.8317 33.3895ZM38.0143 28.1604V34.4104H36.7212V33.6731C36.517 33.9302 36.2486 34.1344 35.9158 34.2856C35.5907 34.4293 35.2428 34.5011 34.8723 34.5011C34.3808 34.5011 33.9384 34.3991 33.5452 34.1949C33.1595 33.9907 32.8532 33.6882 32.6264 33.2874C32.4071 32.8867 32.2974 32.4027 32.2974 31.8355V28.1604H33.5792V31.6427C33.5792 32.2023 33.7191 32.6333 33.9989 32.9358C34.2787 33.2307 34.6606 33.3782 35.1445 33.3782C35.6285 33.3782 36.0104 33.2307 36.2902 32.9358C36.5775 32.6333 36.7212 32.2023 36.7212 31.6427V28.1604H38.0143ZM41.0136 29.0678C41.2026 28.7502 41.4522 28.5045 41.7622 28.3305C42.0798 28.1491 42.4541 28.0583 42.8852 28.0583V29.3968H42.5562C42.0496 29.3968 41.6639 29.5253 41.3992 29.7825C41.1421 30.0396 41.0136 30.4857 41.0136 31.1209V34.4104H39.7205V28.1604H41.0136V29.0678Z" fill="#984817"/>
<defs>
<linearGradient id="paint0_linear_992_4878" x1="31.1801" y1="0.836426" x2="31.1801" y2="62.4762" gradientUnits="userSpaceOnUse">
<stop stop-color="#FFDA70"/>
<stop offset="1" stop-color="#FADF93"/>
</linearGradient>
</defs>
</svg>
